<svg width="188" height="210" viewBox="0 0 188 210" fill="none" xmlns="http://www.w3.org/2000/svg">
<g clip-path="url(#clip0_1627_2697)">
<path d="M26.1222 128.642L89.5444 92.2233L152.967 128.736L89.5444 164.936L26.1222 128.642Z" fill="#0A0A0A"/>
<path d="M26.1222 38.1325L89.5444 74.3384V146.455L26.1222 110.934V38.1325Z" fill="#3E7CB1"/>
<path d="M152.965 38.2269L89.5427 74.4269V146.55L152.965 111.028V38.2269Z" fill="#30C5FF"/>
<path d="M26.1223 38.1327L89.5445 1.71445L152.967 38.2271L89.5445 74.427L26.1223 38.1327Z" fill="#41EEF9"/>
<path d="M11.0369 200.257C13.3147 200.257 14.8906 199.907 15.7634 199.204C16.6361 198.502 17.0718 197.474 17.0718 196.116C17.0718 195.002 16.7387 194.125 16.0711 193.483C15.4036 192.841 14.3807 192.424 12.9995 192.229L7.40024 191.43C3.23131 190.85 1.14684 188.683 1.14684 184.929C1.14684 182.8 1.94672 181.074 3.5465 179.753C5.14628 178.434 7.49688 177.773 10.5998 177.773C13.7027 177.773 16.254 178.482 17.8895 179.899C19.5249 181.316 20.4289 183.186 20.5984 185.51H16.9632C16.7684 183.985 16.1514 182.798 15.1092 181.95C14.067 181.103 12.5519 180.679 10.5641 180.679C8.57628 180.679 7.26048 181.048 6.32827 181.787C5.39457 182.525 4.92772 183.536 4.92772 184.82C4.92772 185.74 5.19386 186.496 5.72761 187.089C6.25988 187.683 7.07315 188.065 8.16444 188.233L14.0908 189.104C16.2957 189.419 17.9742 190.104 19.1265 191.157C20.2773 192.21 20.8541 193.706 20.8541 195.643C20.8541 200.655 17.5817 203.161 11.0369 203.161C7.35266 203.161 4.66159 202.344 2.96517 200.709C1.26875 199.074 0.4198 196.999 0.4198 194.48H4.05498C4.17541 198.329 6.50371 200.254 11.0354 200.254L11.0369 200.257Z" fill="black"/>
<path d="M30.5263 181.443H22.1274V178.428H42.6346V181.443H34.2715V202.583H30.5263V181.443Z" fill="black"/>
<path d="M60.4154 202.582L58.27 196.843H46.5631L44.4177 202.582H40.6368L49.6169 178.427H55.2518L64.232 202.582H60.414H60.4154ZM57.143 193.828L52.4165 181.078L47.6901 193.828H57.143Z" fill="black"/>
<path d="M67.1403 178.428H79.4657C81.8653 178.428 83.6346 178.973 84.7735 180.064C85.9124 181.154 86.4818 182.583 86.4818 184.35C86.4818 185.997 86.0209 187.31 85.1006 188.29C84.1788 189.271 83.0518 189.871 81.7196 190.089C83.2228 190.307 84.4464 190.919 85.392 191.923C86.3376 192.929 86.8104 194.303 86.8104 196.047C86.8104 198.056 86.1621 199.648 84.8657 200.823C83.5692 201.998 81.684 202.585 79.2114 202.585H67.1403V178.428ZM78.1201 188.708C79.6471 188.708 80.7681 188.405 81.4832 187.8C82.1984 187.196 82.5552 186.263 82.5552 185.004C82.5552 183.744 82.2638 182.866 81.6825 182.297C81.1011 181.729 80.0708 181.443 78.5915 181.443H70.884V188.708H78.1201ZM78.7743 199.568C80.1793 199.568 81.2156 199.2 81.8832 198.46C82.5493 197.722 82.8838 196.771 82.8838 195.608C82.8838 192.847 81.2959 191.467 78.1201 191.467H70.884V199.567H78.7743V199.568Z" fill="black"/>
<path d="M90.4453 199.568H95.3903V181.443H90.4453V178.428H104.081V181.443H99.1356V199.568H104.081V202.583H90.4453V199.568Z" fill="black"/>
<path d="M108.625 178.428H112.37V199.568H124.623V202.583H108.625V178.428Z" fill="black"/>
<path d="M127.169 199.568H132.114V181.443H127.169V178.428H140.804V181.443H135.859V199.568H140.804V202.583H127.169V199.568Z" fill="black"/>
<path d="M151.747 181.443H143.348V178.428H163.855V181.443H155.492V202.583H151.747V181.443Z" fill="black"/>
<path d="M169.247 178.428L174.155 187.763L176.047 191.323C176.701 190.233 177.355 189.048 178.009 187.763L182.954 178.428H187.135L177.936 194.592V202.583H174.191V194.592L164.992 178.428H169.246H169.247Z" fill="black"/>
</g>
<defs>
<clipPath id="clip0_1627_2697">
<rect width="186.936" height="209.415" fill="white" transform="translate(0.500122 0.195496)"/>
</clipPath>
</defs>
</svg>
