<svg id="Layer_1" data-name="Layer 1" xmlns="http://www.w3.org/2000/svg" xmlns:xlink="http://www.w3.org/1999/xlink" viewBox="0 0 208.35 167.78"><defs><style>.cls-1{fill:#ef7d00;}.cls-2{fill:#2660a8;}.cls-3{fill:url(#linear-gradient);}</style><linearGradient id="linear-gradient" x1="95.68" y1="93.68" x2="124.99" y2="123" gradientTransform="matrix(1, 0, 0, -1, 0, 170)" gradientUnits="userSpaceOnUse"><stop offset="0" stop-color="#2660a8"/><stop offset="0.1" stop-color="#3061a0"/><stop offset="0.27" stop-color="#4a658a"/><stop offset="0.49" stop-color="#756b66"/><stop offset="0.75" stop-color="#af7436"/><stop offset="1" stop-color="#ef7d00"/></linearGradient></defs><circle class="cls-1" cx="101.78" cy="38.19" r="6.93"/><circle class="cls-2" cx="68.6" cy="70.24" r="9.29"/><circle class="cls-2" cx="94.72" cy="98.4" r="9.29"/><circle class="cls-1" cx="121.78" cy="37.77" r="6.49"/><circle class="cls-1" cx="142.55" cy="37.77" r="6.49"/><circle class="cls-1" cx="121.78" cy="85.61" r="6.49"/><circle class="cls-2" cx="94.87" cy="127.09" r="9.42"/><path class="cls-3" d="M127.9,58.68a6.5,6.5,0,0,0-12.38,1h0a4.39,4.39,0,0,1-1.36,2.15,13.32,13.32,0,0,1-12.66,1.48,17,17,0,0,1-2.24-1.07,8.68,8.68,0,0,0-1.2-.55l-.23-.09a9.15,9.15,0,0,0-6.48,0,9.29,9.29,0,0,0,6.26,17.48,9.12,9.12,0,0,0,4.68-3.61,11.26,11.26,0,0,0,.71-1.21h0s5.9-9.86,13.4-8.72a5.49,5.49,0,0,1,1.76.88h0A6.52,6.52,0,0,0,128,59.06C128,58.93,128,58.81,127.9,58.68Z"/></svg>